<?xml version="1.0" encoding="UTF-8"?>
<svg id="Calque_1" data-name="Calque 1" xmlns="http://www.w3.org/2000/svg" xmlns:xlink="http://www.w3.org/1999/xlink" viewBox="0 0 1024 1024">
  <defs>
    <style>
      .cls-1 {
        fill: url(#Nouvelle_nuance_de_dégradé_1-25);
      }

      .cls-2 {
        fill: url(#Nouvelle_nuance_de_dégradé_1-17);
      }

      .cls-3 {
        fill: url(#Nouvelle_nuance_de_dégradé_1-19);
      }

      .cls-4 {
        fill: url(#Nouvelle_nuance_de_dégradé_1-23);
      }

      .cls-5 {
        fill: url(#Nouvelle_nuance_de_dégradé_1-8);
      }

      .cls-6 {
        fill: url(#Nouvelle_nuance_de_dégradé_1-12);
      }

      .cls-7 {
        fill: url(#Nouvelle_nuance_de_dégradé_1-2);
      }

      .cls-8 {
        fill: url(#Nouvelle_nuance_de_dégradé_1-3);
      }

      .cls-9 {
        fill: url(#Nouvelle_nuance_de_dégradé_1-16);
      }

      .cls-10 {
        fill: url(#Nouvelle_nuance_de_dégradé_1-18);
      }

      .cls-11 {
        fill: url(#Nouvelle_nuance_de_dégradé_1-6);
      }

      .cls-12 {
        fill: url(#Nouvelle_nuance_de_dégradé_1-22);
      }

      .cls-13 {
        fill: url(#Nouvelle_nuance_de_dégradé_1);
      }

      .cls-14 {
        fill: url(#Nouvelle_nuance_de_dégradé_1-21);
      }

      .cls-15 {
        fill: url(#Nouvelle_nuance_de_dégradé_1-13);
      }

      .cls-16 {
        fill: url(#Nouvelle_nuance_de_dégradé_1-4);
      }

      .cls-17 {
        fill: url(#Nouvelle_nuance_de_dégradé_1-9);
      }

      .cls-18 {
        fill: url(#Nouvelle_nuance_de_dégradé_1-15);
      }

      .cls-19 {
        fill: url(#Nouvelle_nuance_de_dégradé_1-10);
      }

      .cls-20 {
        fill: url(#Nouvelle_nuance_de_dégradé_1-5);
      }

      .cls-21 {
        fill: url(#Nouvelle_nuance_de_dégradé_1-7);
      }

      .cls-22 {
        fill: url(#Nouvelle_nuance_de_dégradé_1-11);
      }

      .cls-23 {
        fill: url(#Nouvelle_nuance_de_dégradé_1-20);
      }

      .cls-24 {
        fill: url(#Nouvelle_nuance_de_dégradé_1-14);
      }

      .cls-25 {
        fill: url(#Nouvelle_nuance_de_dégradé_1-24);
      }

      .cls-26 {
        fill: url(#Nouvelle_nuance_de_dégradé_1-26);
      }
    </style>
    <linearGradient id="Nouvelle_nuance_de_dégradé_1" data-name="Nouvelle nuance de dégradé 1" x1="873.34" y1="150.73" x2="151.19" y2="872.88" gradientUnits="userSpaceOnUse">
      <stop offset="0" stop-color="#00c8ff"/>
      <stop offset=".06" stop-color="#08beff"/>
      <stop offset=".35" stop-color="#2f93ff"/>
      <stop offset=".62" stop-color="#4c73ff"/>
      <stop offset=".84" stop-color="#5d60ff"/>
      <stop offset="1" stop-color="#645aff"/>
    </linearGradient>
    <linearGradient id="Nouvelle_nuance_de_dégradé_1-2" data-name="Nouvelle nuance de dégradé 1" x1="824.13" y1="171.13" x2="102.38" y2="892.89" xlink:href="#Nouvelle_nuance_de_dégradé_1"/>
    <linearGradient id="Nouvelle_nuance_de_dégradé_1-3" data-name="Nouvelle nuance de dégradé 1" x1="922.14" y1="130.73" x2="200.41" y2="852.46" xlink:href="#Nouvelle_nuance_de_dégradé_1"/>
    <linearGradient id="Nouvelle_nuance_de_dégradé_1-4" data-name="Nouvelle nuance de dégradé 1" x1="836.86" y1="187.21" x2="114.91" y2="909.16" xlink:href="#Nouvelle_nuance_de_dégradé_1"/>
    <linearGradient id="Nouvelle_nuance_de_dégradé_1-5" data-name="Nouvelle nuance de dégradé 1" x1="909.53" y1="114.54" x2="187.75" y2="836.32" xlink:href="#Nouvelle_nuance_de_dégradé_1"/>
    <linearGradient id="Nouvelle_nuance_de_dégradé_1-6" data-name="Nouvelle nuance de dégradé 1" x1="840.55" y1="142.78" x2="118.07" y2="865.26" xlink:href="#Nouvelle_nuance_de_dégradé_1"/>
    <linearGradient id="Nouvelle_nuance_de_dégradé_1-7" data-name="Nouvelle nuance de dégradé 1" x1="906.09" y1="158.71" x2="184.31" y2="880.49" xlink:href="#Nouvelle_nuance_de_dégradé_1"/>
    <linearGradient id="Nouvelle_nuance_de_dégradé_1-8" data-name="Nouvelle nuance de dégradé 1" x1="875.66" y1="119.61" x2="153.74" y2="841.53" xlink:href="#Nouvelle_nuance_de_dégradé_1"/>
    <linearGradient id="Nouvelle_nuance_de_dégradé_1-9" data-name="Nouvelle nuance de dégradé 1" x1="870.79" y1="182.08" x2="148.87" y2="904" xlink:href="#Nouvelle_nuance_de_dégradé_1"/>
    <linearGradient id="Nouvelle_nuance_de_dégradé_1-10" data-name="Nouvelle nuance de dégradé 1" x1="953.16" y1="117.83" x2="231.08" y2="839.91" xlink:href="#Nouvelle_nuance_de_dégradé_1"/>
    <linearGradient id="Nouvelle_nuance_de_dégradé_1-11" data-name="Nouvelle nuance de dégradé 1" x1="869.33" y1="201.59" x2="147.11" y2="923.81" xlink:href="#Nouvelle_nuance_de_dégradé_1"/>
    <linearGradient id="Nouvelle_nuance_de_dégradé_1-12" data-name="Nouvelle nuance de dégradé 1" x1="877.17" y1="99.9" x2="155.25" y2="821.82" xlink:href="#Nouvelle_nuance_de_dégradé_1"/>
    <linearGradient id="Nouvelle_nuance_de_dégradé_1-13" data-name="Nouvelle nuance de dégradé 1" x1="926.88" y1="163.22" x2="204.52" y2="885.58" xlink:href="#Nouvelle_nuance_de_dégradé_1"/>
    <linearGradient id="Nouvelle_nuance_de_dégradé_1-14" data-name="Nouvelle nuance de dégradé 1" x1="932.58" y1="91.47" x2="210.18" y2="813.86" xlink:href="#Nouvelle_nuance_de_dégradé_1"/>
    <linearGradient id="Nouvelle_nuance_de_dégradé_1-15" data-name="Nouvelle nuance de dégradé 1" x1="945.25" y1="139.9" x2="223.33" y2="861.82" xlink:href="#Nouvelle_nuance_de_dégradé_1"/>
    <linearGradient id="Nouvelle_nuance_de_dégradé_1-16" data-name="Nouvelle nuance de dégradé 1" x1="907.36" y1="91.36" x2="185.27" y2="813.45" xlink:href="#Nouvelle_nuance_de_dégradé_1"/>
    <linearGradient id="Nouvelle_nuance_de_dégradé_1-17" data-name="Nouvelle nuance de dégradé 1" x1="899.85" y1="185.35" x2="178.2" y2="907" xlink:href="#Nouvelle_nuance_de_dégradé_1"/>
    <linearGradient id="Nouvelle_nuance_de_dégradé_1-18" data-name="Nouvelle nuance de dégradé 1" x1="948.77" y1="100.63" x2="226.12" y2="823.28" xlink:href="#Nouvelle_nuance_de_dégradé_1"/>
    <linearGradient id="Nouvelle_nuance_de_dégradé_1-19" data-name="Nouvelle nuance de dégradé 1" x1="793.37" y1="183.73" x2="71.29" y2="905.81" xlink:href="#Nouvelle_nuance_de_dégradé_1"/>
    <linearGradient id="Nouvelle_nuance_de_dégradé_1-20" data-name="Nouvelle nuance de dégradé 1" x1="814.35" y1="209.65" x2="92.01" y2="931.99" xlink:href="#Nouvelle_nuance_de_dégradé_1"/>
    <linearGradient id="Nouvelle_nuance_de_dégradé_1-21" data-name="Nouvelle nuance de dégradé 1" x1="819.8" y1="138.04" x2="97.55" y2="860.29" xlink:href="#Nouvelle_nuance_de_dégradé_1"/>
    <linearGradient id="Nouvelle_nuance_de_dégradé_1-22" data-name="Nouvelle nuance de dégradé 1" x1="798.09" y1="200.6" x2="76.21" y2="922.48" xlink:href="#Nouvelle_nuance_de_dégradé_1"/>
    <linearGradient id="Nouvelle_nuance_de_dégradé_1-23" data-name="Nouvelle nuance de dégradé 1" x1="846.53" y1="116.42" x2="124.36" y2="838.59" xlink:href="#Nouvelle_nuance_de_dégradé_1"/>
    <linearGradient id="Nouvelle_nuance_de_dégradé_1-24" data-name="Nouvelle nuance de dégradé 1" x1="839.1" y1="210.31" x2="117.15" y2="932.26" xlink:href="#Nouvelle_nuance_de_dégradé_1"/>
    <linearGradient id="Nouvelle_nuance_de_dégradé_1-25" data-name="Nouvelle nuance de dégradé 1" x1="801.33" y1="161.48" x2="78.76" y2="884.05" xlink:href="#Nouvelle_nuance_de_dégradé_1"/>
    <linearGradient id="Nouvelle_nuance_de_dégradé_1-26" data-name="Nouvelle nuance de dégradé 1" x1="883.89" y1="137.55" x2="143.59" y2="877.85" xlink:href="#Nouvelle_nuance_de_dégradé_1"/>
  </defs>
  <path class="cls-13" d="m512.02,499.72c-6.81,0-12.32,5.51-12.32,12.32s5.51,12.32,12.32,12.32,12.32-5.51,12.32-12.32-5.52-12.32-12.32-12.32"/>
  <path class="cls-7" d="m488.77,512.05c0-3.06-2.49-5.55-5.55-5.55s-5.55,2.49-5.55,5.55,2.49,5.55,5.55,5.55,5.55-2.49,5.55-5.55"/>
  <path class="cls-8" d="m540.82,506.5c-3.06,0-5.55,2.49-5.55,5.55s2.49,5.55,5.55,5.55,5.56-2.49,5.56-5.55-2.49-5.55-5.56-5.55"/>
  <path class="cls-16" d="m491.66,526.86c-1.48,0-2.88.58-3.93,1.63s-1.63,2.44-1.63,3.93.58,2.88,1.63,3.92c1.05,1.05,2.44,1.63,3.93,1.63s2.88-.58,3.92-1.63c1.05-1.05,1.63-2.44,1.63-3.92s-.58-2.88-1.63-3.93c-1.05-1.05-2.44-1.63-3.92-1.63"/>
  <path class="cls-20" d="m532.39,497.23c1.48,0,2.88-.58,3.93-1.63,1.05-1.05,1.63-2.44,1.63-3.93s-.58-2.88-1.63-3.92c-1.05-1.05-2.44-1.63-3.93-1.63s-2.88.58-3.92,1.63c-1.05,1.05-1.63,2.44-1.63,3.92s.58,2.88,1.63,3.93c1.05,1.05,2.44,1.63,3.92,1.63"/>
  <path class="cls-11" d="m491.66,497.23c1.48,0,2.88-.58,3.92-1.63,2.16-2.16,2.16-5.69,0-7.85-1.05-1.05-2.44-1.63-3.93-1.63s-2.88.58-3.93,1.63c-1.05,1.05-1.63,2.44-1.63,3.92s.58,2.88,1.63,3.93c1.05,1.05,2.44,1.63,3.93,1.63"/>
  <path class="cls-21" d="m532.39,526.86c-1.48,0-2.88.58-3.92,1.63-1.05,1.05-1.63,2.44-1.63,3.93s.58,2.88,1.63,3.92c1.05,1.05,2.44,1.63,3.92,1.63s2.88-.58,3.93-1.63c1.05-1.05,1.63-2.44,1.63-3.92s-.58-2.88-1.63-3.93c-1.05-1.05-2.44-1.63-3.93-1.63"/>
  <path class="cls-5" d="m512.02,477.69c-3.06,0-5.55,2.49-5.55,5.55s2.49,5.56,5.55,5.56,5.55-2.49,5.55-5.56-2.49-5.55-5.55-5.55"/>
  <path class="cls-17" d="m512.02,535.29c-3.06,0-5.55,2.49-5.55,5.55s2.49,5.55,5.55,5.55,5.55-2.49,5.55-5.55-2.49-5.55-5.55-5.55"/>
  <path class="cls-19" d="m558.94,508.91c-1.73,0-3.14,1.41-3.14,3.14s1.41,3.14,3.14,3.14,3.13-1.41,3.13-3.14-1.41-3.14-3.13-3.14"/>
  <path class="cls-22" d="m511.97,555.81c-1.73,0-3.13,1.41-3.13,3.14s1.4,3.13,3.13,3.13,3.13-1.4,3.13-3.13-1.4-3.14-3.13-3.14"/>
  <path class="cls-6" d="m512.01,468.19c1.73,0,3.14-1.41,3.14-3.14s-1.41-3.13-3.14-3.13-3.13,1.41-3.13,3.13,1.4,3.14,3.13,3.14"/>
  <path class="cls-15" d="m542.83,542.83c-.6.59-.92,1.38-.92,2.22s.32,1.63.92,2.22c.6.6,1.38.92,2.22.92.84,0,1.63-.33,2.22-.92.59-.59.92-1.38.92-2.22s-.33-1.62-.92-2.22c-.6-.59-1.39-.92-2.22-.92-.84,0-1.63.32-2.22.92"/>
  <path class="cls-24" d="m542.89,476.72c-.59.59-.92,1.38-.92,2.22s.32,1.63.92,2.22c.59.59,1.38.92,2.22.92.84,0,1.63-.33,2.22-.92s.92-1.38.92-2.22c0-.84-.32-1.63-.92-2.21-.59-.6-1.38-.92-2.22-.92-.84,0-1.63.32-2.22.92"/>
  <path class="cls-18" d="m555.34,526.78c-.45-.02-.89.06-1.31.24-1.13.47-1.89,1.57-1.93,2.79-.06,1.73,1.3,3.18,3.03,3.24.46.02.9-.06,1.31-.23,1.13-.47,1.9-1.57,1.94-2.79.06-1.73-1.3-3.18-3.03-3.24"/>
  <path class="cls-9" d="m529.78,471.97c.45.02.89-.06,1.3-.23,1.14-.47,1.89-1.57,1.94-2.79.03-.84-.27-1.63-.84-2.25-.57-.61-1.35-.96-2.18-.99-.45-.02-.89.06-1.31.23-1.13.47-1.9,1.57-1.94,2.79-.05,1.73,1.3,3.19,3.03,3.24"/>
  <path class="cls-2" d="m528.69,552.41c-.35.14-.66.35-.94.61-.61.57-.97,1.35-1,2.18-.03.84.27,1.64.85,2.25.89.95,2.29,1.26,3.49.76.35-.14.66-.35.94-.61,1.26-1.18,1.33-3.17.15-4.44-.89-.95-2.29-1.25-3.49-.75"/>
  <path class="cls-10" d="m556.49,497c.35-.15.67-.35.94-.61,1.26-1.18,1.33-3.17.15-4.43-.89-.95-2.29-1.26-3.49-.76-.35.14-.67.35-.94.61-1.26,1.18-1.33,3.17-.15,4.43.89.95,2.29,1.25,3.49.75"/>
  <path class="cls-3" d="m465.06,508.91c1.73,0,3.13,1.41,3.13,3.14s-1.41,3.14-3.13,3.14-3.14-1.41-3.14-3.14,1.41-3.14,3.14-3.14"/>
  <path class="cls-23" d="m481.17,542.83c.59.59.92,1.38.92,2.22,0,.84-.32,1.63-.91,2.22-.6.6-1.38.92-2.22.92-.84,0-1.63-.33-2.22-.92-.59-.59-.92-1.38-.92-2.22s.33-1.62.92-2.22c.6-.59,1.38-.92,2.22-.92.84,0,1.63.32,2.22.92"/>
  <path class="cls-14" d="m481.11,476.72c.59.59.92,1.38.92,2.22s-.33,1.63-.92,2.22c-.59.59-1.38.92-2.22.92-.84,0-1.63-.33-2.22-.92-.59-.59-.92-1.38-.92-2.22,0-.84.33-1.63.92-2.21.6-.6,1.38-.92,2.22-.92.84,0,1.63.32,2.22.92"/>
  <path class="cls-12" d="m468.66,526.78c.45-.02.89.06,1.31.24,1.13.47,1.9,1.57,1.94,2.79.06,1.73-1.3,3.18-3.03,3.24-.45.02-.89-.06-1.31-.23-1.13-.47-1.9-1.57-1.94-2.79-.06-1.73,1.3-3.18,3.03-3.24"/>
  <path class="cls-4" d="m494.23,471.97c-.45.02-.89-.06-1.31-.23-1.14-.47-1.89-1.57-1.94-2.79-.03-.84.27-1.63.84-2.25.57-.61,1.35-.96,2.18-.99.45-.02.89.06,1.3.23,1.13.47,1.9,1.57,1.94,2.79.06,1.73-1.3,3.19-3.03,3.24"/>
  <path class="cls-25" d="m495.31,552.41c.35.14.66.35.94.61.62.57.97,1.35,1,2.18.03.84-.28,1.64-.85,2.25-.89.95-2.29,1.26-3.49.76-.35-.14-.66-.35-.94-.61-1.26-1.18-1.33-3.17-.15-4.44.89-.95,2.29-1.25,3.49-.75"/>
  <path class="cls-1" d="m467.51,497c-.35-.15-.67-.35-.94-.61-1.26-1.18-1.33-3.17-.15-4.43.89-.95,2.29-1.26,3.49-.76.35.14.67.35.94.61,1.26,1.18,1.33,3.17.15,4.43-.89.95-2.29,1.25-3.49.75"/>
  <path class="cls-26" d="m804.11,351.75c-14.23-23.24-46.04-34.45-89.57-34.45-27.63,0-59.44,4.81-94.6,13.62-24.28-84.13-64.46-139.42-110.5-139.42s-86.22,54.49-109.66,137.82c-33.49-8.01-63.62-12.82-90.41-12.82-43.53,0-75.34,11.22-89.57,34.45-23.44,38.46,7.53,100.16,71.99,162.65-61.95,60.89-90.41,120.19-67.81,157.85,14.23,23.24,46.04,34.45,89.57,34.45,25.11,0,54.41-4.01,86.22-11.22,24.28,83.33,64.46,137.81,109.66,137.81s86.22-54.49,109.66-137.81c33.49,8.01,63.62,12.82,90.41,12.82,43.53,0,75.34-11.22,89.57-34.45,22.6-37.66-5.86-96.95-67.81-157.85,66.13-63.3,96.27-125,72.83-163.46Zm-89.57-2.4c30.97,0,53.58,7.21,60.27,18.43,12.56,20.83-10.05,69.71-66.97,124.19-20.09-17.63-42.69-35.26-67.81-52.08-2.51-27.24-6.7-53.68-12.56-78.52,31.81-8.01,61.95-12.02,87.06-12.02Zm-149.85,245.98c-17.58,9.61-35.16,18.43-52.74,26.44-17.58-8.01-35.16-16.83-52.74-26.44-16.74-9.62-33.49-19.23-48.55-28.85-1.67-17.63-1.67-35.25-1.67-54.48,0-17.63.84-34.45,1.67-51.28,16.74-11.22,34.32-21.63,53.58-32.05,15.91-8.81,31.81-16.83,47.72-24.04,15.91,7.21,31.81,15.22,47.72,24.04,16.74,9.62,33.49,19.23,48.55,28.85,1.67,17.63,1.67,35.25,1.67,54.48s-.84,39.26-2.51,57.69c-13.39,8.81-27.63,16.83-42.69,25.64Zm38.51,15.22c-2.51,15.22-5.02,30.45-7.53,44.07-14.23-4.81-29.3-9.62-44.37-16.03,10.05-4.81,20.09-10.42,30.14-16.02,7.53-4.01,15.07-8.01,21.77-12.02Zm-130.59,28.04c-16.74,6.41-32.65,12.02-48.55,16.83-3.35-15.22-5.86-31.25-8.37-48.07,9.21,5.61,17.58,10.42,27.63,16.02,9.21,4.81,19.25,10.42,29.3,15.22Zm-96.27-96.15c-13.39-9.62-25.11-19.23-36-28.84,10.88-9.62,23.44-19.23,36-28.85,0,8.81-.84,17.63-.84,27.24,0,10.42,0,20.83.84,30.45Zm38.51-122.59c2.51-17.63,5.02-34.45,8.37-50.48,15.91,4.81,32.65,11.22,49.39,17.63-8.37,4.01-17.58,8.81-25.95,13.62-10.05,6.41-20.93,12.82-31.81,19.23Zm135.62-32.85c15.07-6.41,30.14-11.22,45.21-16.03,3.35,14.42,5.86,29.65,8.37,45.67-9.21-5.61-17.58-10.42-27.63-16.02-8.37-4.01-16.74-8.81-25.95-13.62Zm92.08,94.55c15.07,11.22,28.46,21.63,41.02,32.85-12.56,10.42-25.95,21.63-41.02,32.05.84-11.22.84-22.43.84-33.65s0-21.63-.84-31.25Zm-133.1-258c25.11,0,57.76,42.47,78.69,116.18-24.28,8.01-50.23,17.63-76.18,28.85-27.63-12.02-54.41-22.44-80.36-30.45,20.93-72.91,52.74-114.58,77.85-114.58Zm-261.19,144.23c7.53-12.02,29.3-18.43,60.27-18.43,24.28,0,51.9,4.01,82.04,11.22-5.86,25.64-10.05,53.68-12.56,82.53-23.44,16.02-44.37,32.05-62.78,48.88-56.09-54.48-79.53-103.36-66.97-124.19Zm65.3,306.88c-30.97,0-53.58-7.21-60.27-18.43-12.56-20.83,9.21-67.31,62.78-120.19,19.25,16.02,40.18,32.05,62.78,48.08,2.51,28.04,6.7,55.29,12.56,80.12-27.63,7.21-54.41,10.42-77.85,10.42Zm195.89,125.8c-25.11,0-56.92-41.66-77.85-113.78,25.95-8.01,52.74-17.63,80.36-29.65,25.95,11.22,51.07,20.83,75.34,28.04-20.93,73.72-52.74,115.38-77.85,115.38Zm261.19-144.23c-7.53,12.02-29.3,18.43-60.27,18.43-24.28,0-52.74-4.01-82.04-11.22,5.02-24.04,9.21-48.88,11.72-76.12,25.11-16.83,47.72-33.65,67.81-51.28,53.58,52.88,75.34,99.36,62.78,120.19Z"/>
</svg>